<svg width="110" height="67" viewBox="0 0 110 67" fill="none" xmlns="http://www.w3.org/2000/svg">
<path d="M40.88 -3.8147e-06C43.8667 -3.8147e-06 46.5067 0.69333 48.8 2.08C51.0933 3.41333 52.9067 5.28 54.24 7.68C55.5733 10.08 56.24 12.8267 56.24 15.92C56.24 19.0133 55.5733 21.8133 54.24 24.32C52.9067 26.7733 51.0933 28.72 48.8 30.16C46.5067 31.6 43.8667 32.32 40.88 32.32H23.92L24.32 31.52V53.6C24.32 54.24 24.08 54.8 23.6 55.28C23.12 55.76 22.56 56 21.92 56C21.1733 56 20.5867 55.76 20.16 55.28C19.7333 54.8 19.52 54.24 19.52 53.6V2.4C19.52 1.76 19.76 1.2 20.24 0.719996C20.72 0.239996 21.28 -3.8147e-06 21.92 -3.8147e-06H40.88ZM40.88 27.68C42.96 27.68 44.7733 27.1733 46.32 26.16C47.8667 25.0933 49.0667 23.68 49.92 21.92C50.8267 20.1067 51.28 18.1067 51.28 15.92C51.28 13.7333 50.8267 11.8133 49.92 10.16C49.0667 8.45333 47.8667 7.12 46.32 6.16C44.7733 5.2 42.96 4.72 40.88 4.72H23.92L24.32 4V28.16L23.84 27.68H40.88Z" fill="url(#paint0_linear_0_1)"/>
<path d="M105.4 9.16C106.04 9.58666 106.413 10.1467 106.52 10.84C106.627 11.48 106.467 12.12 106.04 12.76C105.667 13.24 105.187 13.5067 104.6 13.56C104.013 13.6133 103.453 13.5067 102.92 13.24C100.893 11.9067 98.7067 10.8667 96.36 10.12C94.0667 9.37333 91.5867 9 88.92 9C85.6667 9 82.6267 9.58666 79.8 10.76C77.0267 11.88 74.6 13.5333 72.52 15.72C70.44 17.8533 68.8133 20.3867 67.64 23.32C66.52 26.2533 65.96 29.48 65.96 33C65.96 36.6267 66.5467 39.9333 67.72 42.92C68.8933 45.8533 70.52 48.3867 72.6 50.52C74.7333 52.6533 77.1867 54.28 79.96 55.4C82.7333 56.52 85.72 57.08 88.92 57.08C91.5333 57.08 93.9867 56.7067 96.28 55.96C98.6267 55.2133 100.813 54.2 102.84 52.92C103.373 52.6 103.933 52.4933 104.52 52.6C105.16 52.6533 105.667 52.9467 106.04 53.48C106.52 54.0667 106.68 54.7067 106.52 55.4C106.413 56.04 106.067 56.5467 105.48 56.92C104.147 57.7733 102.573 58.5733 100.76 59.32C98.9467 60.0667 97.0267 60.6533 95 61.08C92.9733 61.56 90.9467 61.8 88.92 61.8C85.08 61.8 81.48 61.1067 78.12 59.72C74.76 58.3333 71.7733 56.3867 69.16 53.88C66.5467 51.32 64.4933 48.28 63 44.76C61.56 41.24 60.84 37.32 60.84 33C60.84 28.84 61.56 25.0267 63 21.56C64.44 18.04 66.44 15 69 12.44C71.56 9.88 74.5467 7.88 77.96 6.44C81.3733 5 85.0267 4.28 88.92 4.28C91.96 4.28 94.8933 4.70666 97.72 5.56C100.547 6.41333 103.107 7.61333 105.4 9.16Z" fill="url(#paint1_linear_0_1)"/>
<path d="M53.4562 56.1429C46.5893 55.5934 33.2126 56.6619 20.5298 58.7728L17.536 59.2717C9.12057 60.6766 4.57455 61.6559 1.35503 62.758C0.0984818 63.1882 -0.0113344 63.2456 0.000808741 63.4656C0.0192874 63.7866 0.219385 63.762 2.53371 63.1546C4.92855 62.5261 7.06099 62.1181 12.8939 61.1726C32.3889 58.0123 41.4446 57.0884 51.4951 57.2349C53.4647 57.2635 56.5768 57.6834 56.5556 57.9177C56.5274 58.2305 54.4771 59.0573 49.7581 60.6586C43.9526 62.6285 40.4053 63.9727 40.0697 64.3297C39.4961 64.94 40.0164 65.495 41.2423 65.5814C41.943 65.6309 42.1037 65.623 45.3586 65.3752C54.7038 64.665 60.6547 64.4529 68.6853 64.5441C80.9148 64.6832 88.6743 65.1338 103.211 66.5495C108.434 67.0582 108.705 67.073 109.694 66.9017L109.711 66.8988C110.028 66.8451 110.115 66.4162 109.816 66.2814C109.048 65.935 108.525 65.8572 103.996 65.4191C88.8147 63.95 80.7997 63.473 69.1349 63.3456C63.0002 63.2784 60.2606 63.3149 55.7703 63.5238C52.7005 63.6666 44.5851 64.1832 43.4434 64.3083C42.8207 64.3768 45.5904 63.3498 50.44 61.7144C56.5747 59.6453 57.814 59.0308 57.9117 58.0113C58.0218 56.8616 56.9801 56.4248 53.4562 56.1429V56.1429Z" fill="url(#paint2_linear_0_1)"/>
<defs>
<linearGradient id="paint0_linear_0_1" x1="3" y1="19.5" x2="119" y2="19.5" gradientUnits="userSpaceOnUse">
<stop stop-color="#28EDED"/>
<stop offset="1" stop-color="#0B82EF"/>
</linearGradient>
<linearGradient id="paint1_linear_0_1" x1="8" y1="20" x2="123" y2="20" gradientUnits="userSpaceOnUse">
<stop offset="0.046875" stop-color="#28EDED"/>
<stop offset="0.973958" stop-color="#0B82EF"/>
</linearGradient>
<linearGradient id="paint2_linear_0_1" x1="-9" y1="63" x2="116" y2="61" gradientUnits="userSpaceOnUse">
<stop stop-color="#28EDED"/>
<stop offset="1" stop-color="#0B82EF"/>
</linearGradient>
</defs>
</svg>
